<?xml version="1.0" encoding="UTF-8" standalone="no"?>
<!DOCTYPE svg PUBLIC "-//W3C//DTD SVG 1.1//EN"
 "http://www.w3.org/Graphics/SVG/1.1/DTD/svg11.dtd">
<!-- Generated by graphviz version 2.38.0 (20140413.2041)
 -->
<!-- Title: unnamed Pages: 1 -->
<svg width="684pt" height="483pt"
 viewBox="0.00 0.00 684.00 483.00" xmlns="http://www.w3.org/2000/svg" xmlns:xlink="http://www.w3.org/1999/xlink">
<g id="graph0" class="graph" transform="scale(1 1) rotate(0) translate(4 479)">
<title>unnamed</title>
<polygon fill="white" stroke="none" points="-4,4 -4,-479 680,-479 680,4 -4,4"/>
<!-- Node0xcf9cb18 -->
<g id="node1" class="node"><title>Node0xcf9cb18</title>
<polygon fill="none" stroke="black" points="158.5,-438.5 158.5,-474.5 262.5,-474.5 262.5,-438.5 158.5,-438.5"/>
<text text-anchor="middle" x="210.5" y="-452.8" font-family="Times,serif" font-size="14.00">CompoundStmt</text>
</g>
<!-- Node0xcf9c8b0 -->
<g id="node2" class="node"><title>Node0xcf9c8b0</title>
<polygon fill="none" stroke="black" points="120.5,-365.5 120.5,-401.5 188.5,-401.5 188.5,-365.5 120.5,-365.5"/>
<text text-anchor="middle" x="154.5" y="-379.8" font-family="Times,serif" font-size="14.00">DeclStmt</text>
</g>
<!-- Node0xcf9cb18&#45;&gt;Node0xcf9c8b0 -->
<g id="edge1" class="edge"><title>Node0xcf9cb18&#45;&gt;Node0xcf9c8b0</title>
<path fill="none" stroke="black" d="M196.944,-438.313C190.134,-429.679 181.755,-419.055 174.245,-409.534"/>
<polygon fill="black" stroke="black" points="176.872,-407.213 167.931,-401.529 171.376,-411.548 176.872,-407.213"/>
</g>
<!-- Node0xcf9caf8 -->
<g id="node3" class="node"><title>Node0xcf9caf8</title>
<polygon fill="none" stroke="black" points="229,-365.5 229,-401.5 306,-401.5 306,-365.5 229,-365.5"/>
<text text-anchor="middle" x="267.5" y="-379.8" font-family="Times,serif" font-size="14.00">WhileStmt</text>
</g>
<!-- Node0xcf9cb18&#45;&gt;Node0xcf9caf8 -->
<g id="edge2" class="edge"><title>Node0xcf9cb18&#45;&gt;Node0xcf9caf8</title>
<path fill="none" stroke="black" d="M224.298,-438.313C231.23,-429.679 239.759,-419.055 247.402,-409.534"/>
<polygon fill="black" stroke="black" points="250.298,-411.518 253.829,-401.529 244.839,-407.136 250.298,-411.518"/>
</g>
<!-- Node0xcf9c7e0 -->
<g id="node4" class="node"><title>Node0xcf9c7e0</title>
<polygon fill="none" stroke="black" points="0,-292.5 0,-328.5 91,-328.5 91,-292.5 0,-292.5"/>
<text text-anchor="middle" x="45.5" y="-306.8" font-family="Times,serif" font-size="14.00">IntegerLiteral</text>
</g>
<!-- Node0xcf9c8b0&#45;&gt;Node0xcf9c7e0 -->
<g id="edge3" class="edge"><title>Node0xcf9c8b0&#45;&gt;Node0xcf9c7e0</title>
<path fill="none" stroke="black" d="M128.392,-365.494C113.937,-356.079 95.7865,-344.255 80.1571,-334.075"/>
<polygon fill="black" stroke="black" points="82.0624,-331.139 71.773,-328.614 78.2418,-337.004 82.0624,-331.139"/>
</g>
<!-- Node0xcf9c878 -->
<g id="node5" class="node"><title>Node0xcf9c878</title>
<polygon fill="none" stroke="black" points="109,-292.5 109,-328.5 200,-328.5 200,-292.5 109,-292.5"/>
<text text-anchor="middle" x="154.5" y="-306.8" font-family="Times,serif" font-size="14.00">IntegerLiteral</text>
</g>
<!-- Node0xcf9c8b0&#45;&gt;Node0xcf9c878 -->
<g id="edge4" class="edge"><title>Node0xcf9c8b0&#45;&gt;Node0xcf9c878</title>
<path fill="none" stroke="black" d="M154.5,-365.313C154.5,-357.289 154.5,-347.547 154.5,-338.569"/>
<polygon fill="black" stroke="black" points="158,-338.529 154.5,-328.529 151,-338.529 158,-338.529"/>
</g>
<!-- Node0xcf9c8f0 -->
<g id="node6" class="node"><title>Node0xcf9c8f0</title>
<polygon fill="none" stroke="black" points="218.5,-292.5 218.5,-328.5 316.5,-328.5 316.5,-292.5 218.5,-292.5"/>
<text text-anchor="middle" x="267.5" y="-306.8" font-family="Times,serif" font-size="14.00">UnaryOperator</text>
</g>
<!-- Node0xcf9caf8&#45;&gt;Node0xcf9c8f0 -->
<g id="edge5" class="edge"><title>Node0xcf9caf8&#45;&gt;Node0xcf9c8f0</title>
<path fill="none" stroke="black" d="M267.5,-365.313C267.5,-357.289 267.5,-347.547 267.5,-338.569"/>
<polygon fill="black" stroke="black" points="271,-338.529 267.5,-328.529 264,-338.529 271,-338.529"/>
</g>
<!-- Node0xcf9cad0 -->
<g id="node7" class="node"><title>Node0xcf9cad0</title>
<polygon fill="none" stroke="black" points="334.5,-292.5 334.5,-328.5 438.5,-328.5 438.5,-292.5 334.5,-292.5"/>
<text text-anchor="middle" x="386.5" y="-306.8" font-family="Times,serif" font-size="14.00">CompoundStmt</text>
</g>
<!-- Node0xcf9caf8&#45;&gt;Node0xcf9cad0 -->
<g id="edge6" class="edge"><title>Node0xcf9caf8&#45;&gt;Node0xcf9cad0</title>
<path fill="none" stroke="black" d="M296.003,-365.494C311.93,-355.991 331.967,-344.036 349.137,-333.792"/>
<polygon fill="black" stroke="black" points="351.022,-336.743 357.817,-328.614 347.436,-330.732 351.022,-336.743"/>
</g>
<!-- Node0xcf9c8c8 -->
<g id="node9" class="node"><title>Node0xcf9c8c8</title>
<polygon fill="none" stroke="black" points="223.5,-219.5 223.5,-255.5 311.5,-255.5 311.5,-219.5 223.5,-219.5"/>
<text text-anchor="middle" x="267.5" y="-233.8" font-family="Times,serif" font-size="14.00">DeclRefExpr</text>
</g>
<!-- Node0xcf9c8f0&#45;&gt;Node0xcf9c8c8 -->
<g id="edge7" class="edge"><title>Node0xcf9c8f0&#45;&gt;Node0xcf9c8c8</title>
<path fill="none" stroke="black" d="M267.5,-292.313C267.5,-284.289 267.5,-274.547 267.5,-265.569"/>
<polygon fill="black" stroke="black" points="271,-265.529 267.5,-255.529 264,-265.529 271,-265.529"/>
</g>
<!-- Node0xcf9c9e0 -->
<g id="node10" class="node"><title>Node0xcf9c9e0</title>
<polygon fill="none" stroke="black" points="333,-219.5 333,-255.5 434,-255.5 434,-219.5 333,-219.5"/>
<text text-anchor="middle" x="383.5" y="-233.8" font-family="Times,serif" font-size="14.00">BinaryOperator</text>
</g>
<!-- Node0xcf9cad0&#45;&gt;Node0xcf9c9e0 -->
<g id="edge8" class="edge"><title>Node0xcf9cad0&#45;&gt;Node0xcf9c9e0</title>
<path fill="none" stroke="black" d="M385.774,-292.313C385.435,-284.289 385.023,-274.547 384.644,-265.569"/>
<polygon fill="black" stroke="black" points="388.139,-265.372 384.22,-255.529 381.145,-265.668 388.139,-265.372"/>
</g>
<!-- Node0xcf9ca98 -->
<g id="node11" class="node"><title>Node0xcf9ca98</title>
<polygon fill="none" stroke="black" points="484.5,-219.5 484.5,-255.5 538.5,-255.5 538.5,-219.5 484.5,-219.5"/>
<text text-anchor="middle" x="511.5" y="-233.8" font-family="Times,serif" font-size="14.00">IfStmt</text>
</g>
<!-- Node0xcf9cad0&#45;&gt;Node0xcf9ca98 -->
<g id="edge9" class="edge"><title>Node0xcf9cad0&#45;&gt;Node0xcf9ca98</title>
<path fill="none" stroke="black" d="M416.441,-292.494C434.193,-282.411 456.807,-269.566 475.524,-258.934"/>
<polygon fill="black" stroke="black" points="477.395,-261.897 484.361,-253.915 473.937,-255.81 477.395,-261.897"/>
</g>
<!-- Node0x0 -->
<g id="node8" class="node"><title>Node0x0</title>
<polygon fill="none" stroke="black" points="281,-438.5 281,-474.5 350,-474.5 350,-438.5 281,-438.5"/>
<text text-anchor="middle" x="315.5" y="-452.8" font-family="Times,serif" font-size="14.00">&lt;NULL&gt;</text>
</g>
<!-- Node0xcf9c910 -->
<g id="node12" class="node"><title>Node0xcf9c910</title>
<polygon fill="none" stroke="black" points="226.5,-146.5 226.5,-182.5 314.5,-182.5 314.5,-146.5 226.5,-146.5"/>
<text text-anchor="middle" x="270.5" y="-160.8" font-family="Times,serif" font-size="14.00">DeclRefExpr</text>
</g>
<!-- Node0xcf9c9e0&#45;&gt;Node0xcf9c910 -->
<g id="edge10" class="edge"><title>Node0xcf9c9e0&#45;&gt;Node0xcf9c910</title>
<path fill="none" stroke="black" d="M356.434,-219.494C341.449,-210.079 322.632,-198.255 306.429,-188.075"/>
<polygon fill="black" stroke="black" points="308.067,-184.97 297.737,-182.614 304.342,-190.897 308.067,-184.97"/>
</g>
<!-- Node0xcf9c9b8 -->
<g id="node13" class="node"><title>Node0xcf9c9b8</title>
<polygon fill="none" stroke="black" points="333,-146.5 333,-182.5 434,-182.5 434,-146.5 333,-146.5"/>
<text text-anchor="middle" x="383.5" y="-160.8" font-family="Times,serif" font-size="14.00">BinaryOperator</text>
</g>
<!-- Node0xcf9c9e0&#45;&gt;Node0xcf9c9b8 -->
<g id="edge11" class="edge"><title>Node0xcf9c9e0&#45;&gt;Node0xcf9c9b8</title>
<path fill="none" stroke="black" d="M383.5,-219.313C383.5,-211.289 383.5,-201.547 383.5,-192.569"/>
<polygon fill="black" stroke="black" points="387,-192.529 383.5,-182.529 380,-192.529 387,-192.529"/>
</g>
<!-- Node0xcf9ca68 -->
<g id="node18" class="node"><title>Node0xcf9ca68</title>
<polygon fill="none" stroke="black" points="461,-146.5 461,-182.5 562,-182.5 562,-146.5 461,-146.5"/>
<text text-anchor="middle" x="511.5" y="-160.8" font-family="Times,serif" font-size="14.00">BinaryOperator</text>
</g>
<!-- Node0xcf9ca98&#45;&gt;Node0xcf9ca68 -->
<g id="edge16" class="edge"><title>Node0xcf9ca98&#45;&gt;Node0xcf9ca68</title>
<path fill="none" stroke="black" d="M511.5,-219.313C511.5,-211.289 511.5,-201.547 511.5,-192.569"/>
<polygon fill="black" stroke="black" points="515,-192.529 511.5,-182.529 508,-192.529 515,-192.529"/>
</g>
<!-- Node0xcf9ca90 -->
<g id="node19" class="node"><title>Node0xcf9ca90</title>
<polygon fill="none" stroke="black" points="580,-146.5 580,-182.5 655,-182.5 655,-146.5 580,-146.5"/>
<text text-anchor="middle" x="617.5" y="-160.8" font-family="Times,serif" font-size="14.00">BreakStmt</text>
</g>
<!-- Node0xcf9ca98&#45;&gt;Node0xcf9ca90 -->
<g id="edge17" class="edge"><title>Node0xcf9ca98&#45;&gt;Node0xcf9ca90</title>
<path fill="none" stroke="black" d="M536.89,-219.494C550.816,-210.166 568.271,-198.474 583.374,-188.358"/>
<polygon fill="black" stroke="black" points="585.59,-191.087 591.95,-182.614 581.694,-185.271 585.59,-191.087"/>
</g>
<!-- Node0xcf9c988 -->
<g id="node14" class="node"><title>Node0xcf9c988</title>
<polygon fill="none" stroke="black" points="200.5,-73.5 200.5,-109.5 310.5,-109.5 310.5,-73.5 200.5,-73.5"/>
<text text-anchor="middle" x="255.5" y="-87.8" font-family="Times,serif" font-size="14.00">ImplicitCastExpr</text>
</g>
<!-- Node0xcf9c9b8&#45;&gt;Node0xcf9c988 -->
<g id="edge12" class="edge"><title>Node0xcf9c9b8&#45;&gt;Node0xcf9c988</title>
<path fill="none" stroke="black" d="M352.841,-146.494C335.553,-136.904 313.761,-124.817 295.182,-114.511"/>
<polygon fill="black" stroke="black" points="296.795,-111.404 286.353,-109.614 293.4,-117.525 296.795,-111.404"/>
</g>
<!-- Node0xcf9c9a0 -->
<g id="node15" class="node"><title>Node0xcf9c9a0</title>
<polygon fill="none" stroke="black" points="328.5,-73.5 328.5,-109.5 438.5,-109.5 438.5,-73.5 328.5,-73.5"/>
<text text-anchor="middle" x="383.5" y="-87.8" font-family="Times,serif" font-size="14.00">ImplicitCastExpr</text>
</g>
<!-- Node0xcf9c9b8&#45;&gt;Node0xcf9c9a0 -->
<g id="edge13" class="edge"><title>Node0xcf9c9b8&#45;&gt;Node0xcf9c9a0</title>
<path fill="none" stroke="black" d="M383.5,-146.313C383.5,-138.289 383.5,-128.547 383.5,-119.569"/>
<polygon fill="black" stroke="black" points="387,-119.529 383.5,-109.529 380,-119.529 387,-119.529"/>
</g>
<!-- Node0xcf9c938 -->
<g id="node16" class="node"><title>Node0xcf9c938</title>
<polygon fill="none" stroke="black" points="211.5,-0.5 211.5,-36.5 299.5,-36.5 299.5,-0.5 211.5,-0.5"/>
<text text-anchor="middle" x="255.5" y="-14.8" font-family="Times,serif" font-size="14.00">DeclRefExpr</text>
</g>
<!-- Node0xcf9c988&#45;&gt;Node0xcf9c938 -->
<g id="edge14" class="edge"><title>Node0xcf9c988&#45;&gt;Node0xcf9c938</title>
<path fill="none" stroke="black" d="M255.5,-73.3129C255.5,-65.2895 255.5,-55.5475 255.5,-46.5691"/>
<polygon fill="black" stroke="black" points="259,-46.5288 255.5,-36.5288 252,-46.5289 259,-46.5288"/>
</g>
<!-- Node0xcf9c960 -->
<g id="node17" class="node"><title>Node0xcf9c960</title>
<polygon fill="none" stroke="black" points="339.5,-0.5 339.5,-36.5 427.5,-36.5 427.5,-0.5 339.5,-0.5"/>
<text text-anchor="middle" x="383.5" y="-14.8" font-family="Times,serif" font-size="14.00">DeclRefExpr</text>
</g>
<!-- Node0xcf9c9a0&#45;&gt;Node0xcf9c960 -->
<g id="edge15" class="edge"><title>Node0xcf9c9a0&#45;&gt;Node0xcf9c960</title>
<path fill="none" stroke="black" d="M383.5,-73.3129C383.5,-65.2895 383.5,-55.5475 383.5,-46.5691"/>
<polygon fill="black" stroke="black" points="387,-46.5288 383.5,-36.5288 380,-46.5289 387,-46.5288"/>
</g>
<!-- Node0xcf9ca50 -->
<g id="node20" class="node"><title>Node0xcf9ca50</title>
<polygon fill="none" stroke="black" points="456.5,-73.5 456.5,-109.5 566.5,-109.5 566.5,-73.5 456.5,-73.5"/>
<text text-anchor="middle" x="511.5" y="-87.8" font-family="Times,serif" font-size="14.00">ImplicitCastExpr</text>
</g>
<!-- Node0xcf9ca68&#45;&gt;Node0xcf9ca50 -->
<g id="edge18" class="edge"><title>Node0xcf9ca68&#45;&gt;Node0xcf9ca50</title>
<path fill="none" stroke="black" d="M511.5,-146.313C511.5,-138.289 511.5,-128.547 511.5,-119.569"/>
<polygon fill="black" stroke="black" points="515,-119.529 511.5,-109.529 508,-119.529 515,-119.529"/>
</g>
<!-- Node0xcf9ca30 -->
<g id="node21" class="node"><title>Node0xcf9ca30</title>
<polygon fill="none" stroke="black" points="585,-73.5 585,-109.5 676,-109.5 676,-73.5 585,-73.5"/>
<text text-anchor="middle" x="630.5" y="-87.8" font-family="Times,serif" font-size="14.00">IntegerLiteral</text>
</g>
<!-- Node0xcf9ca68&#45;&gt;Node0xcf9ca30 -->
<g id="edge19" class="edge"><title>Node0xcf9ca68&#45;&gt;Node0xcf9ca30</title>
<path fill="none" stroke="black" d="M540.003,-146.494C555.93,-136.991 575.967,-125.036 593.137,-114.792"/>
<polygon fill="black" stroke="black" points="595.022,-117.743 601.817,-109.614 591.436,-111.732 595.022,-117.743"/>
</g>
<!-- Node0xcf9ca08 -->
<g id="node22" class="node"><title>Node0xcf9ca08</title>
<polygon fill="none" stroke="black" points="467.5,-0.5 467.5,-36.5 555.5,-36.5 555.5,-0.5 467.5,-0.5"/>
<text text-anchor="middle" x="511.5" y="-14.8" font-family="Times,serif" font-size="14.00">DeclRefExpr</text>
</g>
<!-- Node0xcf9ca50&#45;&gt;Node0xcf9ca08 -->
<g id="edge20" class="edge"><title>Node0xcf9ca50&#45;&gt;Node0xcf9ca08</title>
<path fill="none" stroke="black" d="M511.5,-73.3129C511.5,-65.2895 511.5,-55.5475 511.5,-46.5691"/>
<polygon fill="black" stroke="black" points="515,-46.5288 511.5,-36.5288 508,-46.5289 515,-46.5288"/>
</g>
</g>
</svg>
