<?xml version="1.0" encoding="UTF-8" standalone="no"?>
<!DOCTYPE svg PUBLIC "-//W3C//DTD SVG 1.1//EN"
 "http://www.w3.org/Graphics/SVG/1.1/DTD/svg11.dtd">
<!-- Generated by graphviz version 2.38.0 (20140413.2041)
 -->
<!-- Title: unnamed Pages: 1 -->
<svg width="391pt" height="658pt"
 viewBox="0.00 0.00 390.50 658.00" xmlns="http://www.w3.org/2000/svg" xmlns:xlink="http://www.w3.org/1999/xlink">
<g id="graph0" class="graph" transform="scale(1 1) rotate(0) translate(4 654)">
<title>unnamed</title>
<polygon fill="white" stroke="none" points="-4,4 -4,-654 386.5,-654 386.5,4 -4,4"/>
<!-- Node0xb6b9cc0 -->
<g id="node1" class="node"><title>Node0xb6b9cc0</title>
<polygon fill="none" stroke="black" points="70,-0.5 70,-36.5 155,-36.5 155,-0.5 70,-0.5"/>
<text text-anchor="start" x="78" y="-14.8" font-family="Times,serif" font-size="14.00">[B0 (EXIT)]</text>
</g>
<!-- Node0xb6b9d98 -->
<g id="node2" class="node"><title>Node0xb6b9d98</title>
<polygon fill="none" stroke="black" points="83.5,-74.5 83.5,-110.5 137.5,-110.5 137.5,-74.5 83.5,-74.5"/>
<text text-anchor="start" x="91.5" y="-88.8" font-family="Times,serif" font-size="14.00">[B1]</text>
</g>
<!-- Node0xb6ba1c0 -->
<g id="node3" class="node"><title>Node0xb6ba1c0</title>
<polygon fill="none" stroke="black" points="0,-388.5 0,-456.5 105,-456.5 105,-388.5 0,-388.5"/>
<text text-anchor="start" x="8" y="-441.3" font-family="Times,serif" font-size="14.00">[B4]</text>
<text text-anchor="start" x="8" y="-426.3" font-family="Times,serif" font-size="14.00"> 1: i</text>
<text text-anchor="start" x="8" y="-411.3" font-family="Times,serif" font-size="14.00"> 2: [B4.1]&#45;&#45;</text>
<text text-anchor="start" x="8" y="-396.3" font-family="Times,serif" font-size="14.00"> T: while [B4.2]</text>
</g>
<!-- Node0xb6b9d98&#45;&gt;Node0xb6ba1c0 -->
<g id="edge1" class="edge"><title>Node0xb6b9d98&#45;&gt;Node0xb6ba1c0</title>
<path fill="none" stroke="black" d="M94.3811,-110.717C85.9864,-120.787 76.4612,-134.205 71.5,-148 43.6561,-225.421 44.7516,-322.987 48.3999,-378.194"/>
<polygon fill="black" stroke="black" points="44.9201,-378.601 49.1301,-388.323 51.902,-378.097 44.9201,-378.601"/>
</g>
<!-- Node0xb6ba1c0&#45;&gt;Node0xb6b9cc0 -->
<g id="edge6" class="edge"><title>Node0xb6ba1c0&#45;&gt;Node0xb6b9cc0</title>
<path fill="none" stroke="black" d="M46.5922,-388.268C38.4441,-336.393 26.5708,-233.276 43.5,-148 50.5233,-112.622 57.057,-104.57 74.5,-73 79.7892,-63.427 86.4553,-53.5103 92.7217,-44.8539"/>
<polygon fill="black" stroke="black" points="95.6409,-46.7933 98.7892,-36.677 90.0195,-42.622 95.6409,-46.7933"/>
</g>
<!-- Node0xb6b9f48 -->
<g id="node5" class="node"><title>Node0xb6b9f48</title>
<polygon fill="none" stroke="black" points="80.5,-148.5 80.5,-351.5 382.5,-351.5 382.5,-148.5 80.5,-148.5"/>
<text text-anchor="start" x="88.5" y="-336.3" font-family="Times,serif" font-size="14.00">[B3]</text>
<text text-anchor="start" x="88.5" y="-321.3" font-family="Times,serif" font-size="14.00"> 1: j</text>
<text text-anchor="start" x="88.5" y="-306.3" font-family="Times,serif" font-size="14.00"> 2: [B3.1] (ImplicitCastExpr, LValueToRValue, int)</text>
<text text-anchor="start" x="88.5" y="-291.3" font-family="Times,serif" font-size="14.00"> 3: i</text>
<text text-anchor="start" x="88.5" y="-276.3" font-family="Times,serif" font-size="14.00"> 4: [B3.3] (ImplicitCastExpr, LValueToRValue, int)</text>
<text text-anchor="start" x="88.5" y="-261.3" font-family="Times,serif" font-size="14.00"> 5: [B3.2] + [B3.4]</text>
<text text-anchor="start" x="88.5" y="-246.3" font-family="Times,serif" font-size="14.00"> 6: j</text>
<text text-anchor="start" x="88.5" y="-231.3" font-family="Times,serif" font-size="14.00"> 7: [B3.6] = [B3.5]</text>
<text text-anchor="start" x="88.5" y="-216.3" font-family="Times,serif" font-size="14.00"> 8: j</text>
<text text-anchor="start" x="88.5" y="-201.3" font-family="Times,serif" font-size="14.00"> 9: [B3.8] (ImplicitCastExpr, LValueToRValue, int)</text>
<text text-anchor="start" x="88.5" y="-186.3" font-family="Times,serif" font-size="14.00"> 10: 4</text>
<text text-anchor="start" x="88.5" y="-171.3" font-family="Times,serif" font-size="14.00"> 11: [B3.9] &gt; [B3.10]</text>
<text text-anchor="start" x="88.5" y="-156.3" font-family="Times,serif" font-size="14.00"> T: if [B3.11]</text>
</g>
<!-- Node0xb6ba1c0&#45;&gt;Node0xb6b9f48 -->
<g id="edge5" class="edge"><title>Node0xb6ba1c0&#45;&gt;Node0xb6b9f48</title>
<path fill="none" stroke="black" d="M87.4379,-388.221C96.7855,-379.317 107.417,-369.191 118.571,-358.566"/>
<polygon fill="black" stroke="black" points="121.141,-360.952 125.968,-351.521 116.313,-355.883 121.141,-360.952"/>
</g>
<!-- Node0xb6b9e70 -->
<g id="node4" class="node"><title>Node0xb6b9e70</title>
<polygon fill="none" stroke="black" points="175.5,-73.5 175.5,-111.5 245.5,-111.5 245.5,-73.5 175.5,-73.5"/>
<text text-anchor="start" x="183.5" y="-96.3" font-family="Times,serif" font-size="14.00">[B2]</text>
<text text-anchor="start" x="183.5" y="-81.3" font-family="Times,serif" font-size="14.00"> T: break;</text>
</g>
<!-- Node0xb6b9e70&#45;&gt;Node0xb6b9cc0 -->
<g id="edge2" class="edge"><title>Node0xb6b9e70&#45;&gt;Node0xb6b9cc0</title>
<path fill="none" stroke="black" d="M185.77,-73.3314C173.092,-64.0167 157.514,-52.5712 143.986,-42.6325"/>
<polygon fill="black" stroke="black" points="146.003,-39.7717 135.872,-36.6715 141.859,-45.4129 146.003,-39.7717"/>
</g>
<!-- Node0xb6b9f48&#45;&gt;Node0xb6b9d98 -->
<g id="edge4" class="edge"><title>Node0xb6b9f48&#45;&gt;Node0xb6b9d98</title>
<path fill="none" stroke="black" d="M153.16,-148.323C144.709,-137.463 136.769,-127.258 130.083,-118.666"/>
<polygon fill="black" stroke="black" points="132.746,-116.389 123.842,-110.647 127.221,-120.688 132.746,-116.389"/>
</g>
<!-- Node0xb6b9f48&#45;&gt;Node0xb6b9e70 -->
<g id="edge3" class="edge"><title>Node0xb6b9f48&#45;&gt;Node0xb6b9e70</title>
<path fill="none" stroke="black" d="M217.904,-148.323C216.603,-138.689 215.371,-129.571 214.3,-121.637"/>
<polygon fill="black" stroke="black" points="217.753,-121.055 212.946,-111.614 210.816,-121.992 217.753,-121.055"/>
</g>
<!-- Node0xb6ba2f0 -->
<g id="node6" class="node"><title>Node0xb6ba2f0</title>
<polygon fill="none" stroke="black" points="11,-493.5 11,-576.5 94,-576.5 94,-493.5 11,-493.5"/>
<text text-anchor="start" x="19" y="-561.3" font-family="Times,serif" font-size="14.00">[B5]</text>
<text text-anchor="start" x="19" y="-546.3" font-family="Times,serif" font-size="14.00"> 1: 3</text>
<text text-anchor="start" x="19" y="-531.3" font-family="Times,serif" font-size="14.00"> 2: int i = 3;</text>
<text text-anchor="start" x="19" y="-516.3" font-family="Times,serif" font-size="14.00"> 3: 0</text>
<text text-anchor="start" x="19" y="-501.3" font-family="Times,serif" font-size="14.00"> 4: int j = 0;</text>
</g>
<!-- Node0xb6ba2f0&#45;&gt;Node0xb6ba1c0 -->
<g id="edge7" class="edge"><title>Node0xb6ba2f0&#45;&gt;Node0xb6ba1c0</title>
<path fill="none" stroke="black" d="M52.5,-493.481C52.5,-484.804 52.5,-475.604 52.5,-466.826"/>
<polygon fill="black" stroke="black" points="56.0001,-466.771 52.5,-456.771 49.0001,-466.771 56.0001,-466.771"/>
</g>
<!-- Node0xb6ba400 -->
<g id="node7" class="node"><title>Node0xb6ba400</title>
<polygon fill="none" stroke="black" points="3,-613.5 3,-649.5 102,-649.5 102,-613.5 3,-613.5"/>
<text text-anchor="start" x="11" y="-627.8" font-family="Times,serif" font-size="14.00">[B6 (ENTRY)]</text>
</g>
<!-- Node0xb6ba400&#45;&gt;Node0xb6ba2f0 -->
<g id="edge8" class="edge"><title>Node0xb6ba400&#45;&gt;Node0xb6ba2f0</title>
<path fill="none" stroke="black" d="M52.5,-613.167C52.5,-605.654 52.5,-596.427 52.5,-586.999"/>
<polygon fill="black" stroke="black" points="56.0001,-586.762 52.5,-576.762 49.0001,-586.762 56.0001,-586.762"/>
</g>
</g>
</svg>
